<svg width="95" height="48" viewBox="0 0 95 48" fill="none" xmlns="http://www.w3.org/2000/svg">
<path d="M4.29202 1.34872C5.92251 1.34872 7.24129 2.67336 7.24129 4.31109C7.24129 5.94882 5.92251 7.27346 4.29202 7.27346C2.66153 7.27346 1.34275 5.94882 1.34275 4.31109C1.34275 2.67336 2.66153 1.34872 4.29202 1.34872ZM4.29202 0C1.91822 0 7.31744e-07 1.92674 7.31744e-07 4.31109C7.31744e-07 6.69543 1.91822 8.62218 4.29202 8.62218C6.66583 8.62218 8.58405 6.69543 8.58405 4.31109C8.58405 1.92674 6.64185 0 4.29202 0Z" transform="translate(48.0275)" fill="#38A4DD"/>
<path d="M18.2951 0V11.4641C16.9043 10.573 15.2978 9.9709 13.5954 9.73006C13.0439 9.6578 12.4924 9.60963 11.9409 9.60963C5.34705 9.63372 0 15.0045 0 21.6036C0 28.2268 5.34705 33.5976 11.9409 33.5976C12.7322 33.5976 13.4995 33.5253 14.2428 33.3808C15.8014 33.0677 17.24 32.4656 18.5109 31.6227V33.5976H23.8819V0H18.2951ZM15.4417 26.9503C14.7703 27.4079 14.003 27.721 13.1638 27.8896C12.7562 27.9619 12.3486 28.01 11.9409 28.01C8.44018 28.01 5.58682 25.1681 5.58682 21.6277C5.58682 18.1114 8.4162 15.2454 11.9409 15.2454C12.2287 15.2454 12.5404 15.2694 12.8281 15.3176C13.7393 15.438 14.5785 15.7511 15.3218 16.2328C17.1201 17.3648 18.2951 19.3638 18.2951 21.6277C18.2951 23.8435 17.1441 25.7943 15.4417 26.9503Z" fill="#263238"/>
<path d="M-3.65872e-07 0H5.80263V28.6603H22.1555V33.5976H-3.65872e-07V0Z" transform="translate(25.6802)" fill="#263238"/>
<path d="M19.5659 4.52785C20.6689 4.52785 21.6999 4.86503 22.659 5.5153L24.2176 1.30055C22.9947 0.433517 21.3163 0 19.1822 0C16.4727 0 14.3627 0.746613 12.8761 2.21575C11.3895 3.6849 10.6461 5.73206 10.6461 8.285V9.63372H5.58682H-1.46349e-06V14.3061V33.5976H5.58682V14.3061H6.71378H10.6461V33.5976H16.233V14.3061H22.6111V9.82639V9.63372H16.0411V8.38133C16.0411 5.8284 17.2161 4.52785 19.5659 4.52785Z" transform="translate(49.4902)" fill="#263238"/>
<path d="M23.762 13.728C23.8339 13.1741 23.8819 12.5961 23.8819 11.994C23.8819 5.3708 18.5348 3.67497e-07 11.9409 3.67497e-07C5.34704 3.67497e-07 0 5.3708 0 11.994C0 18.6172 5.34704 23.988 11.9409 23.988C16.6166 23.988 20.6449 21.2905 22.6111 17.3648H16.8564C15.5616 18.569 13.8352 19.2915 11.9409 19.2915C8.53609 19.2915 5.65876 16.9313 4.89147 13.728H23.762ZM11.9409 4.72052C15.2978 4.72052 18.1032 7.00853 18.9425 10.0913H4.93943C5.77865 6.98445 8.58405 4.72052 11.9409 4.72052Z" transform="translate(71.0941 9.60963)" fill="#263238"/>
<path d="M0 -1.46999e-06H1.24685V6.71952H0V-1.46999e-06Z" transform="translate(0 39.3537)" fill="#263238"/>
<path d="M3.74054 5.94882C3.59667 6.06924 3.42882 6.14149 3.237 6.21375C3.04518 6.26192 2.82938 6.31009 2.5896 6.31009C2.03811 6.31009 1.60651 6.16558 1.2948 5.87657C0.983089 5.58756 0.839223 5.15404 0.839223 4.6001V2.1435H-9.1468e-08V1.18013H0.839223V-1.46999e-06H2.03811V1.18013H3.40485V2.1435H2.03811V4.57601C2.03811 4.81686 2.08607 5.00953 2.22993 5.15404C2.34982 5.27446 2.51767 5.34671 2.75745 5.34671C3.0212 5.34671 3.237 5.27446 3.42882 5.12995L3.74054 5.94882Z" transform="translate(2.01413 39.8354)" fill="#263238"/>
<path d="M1.34276 0.216759C1.48662 0.361265 1.55856 0.553938 1.55856 0.794781C1.55856 0.915202 1.53458 1.01154 1.5106 1.13196C1.48662 1.25238 1.41469 1.39689 1.34276 1.61365L0.839223 2.98645H0.0719332L0.455578 1.51731C0.311711 1.46914 0.2158 1.37281 0.119889 1.25238C0.0479556 1.13196 0 0.987455 0 0.794781C0 0.553938 0.0719333 0.385349 0.2158 0.216759C0.359667 0.0722536 0.551489 -1.46999e-06 0.767289 -1.46999e-06C1.00707 -1.46999e-06 1.19889 0.0722536 1.34276 0.216759Z" transform="translate(6.11434 38.872)" fill="#263238"/>
<path d="M0.935134 5.08179C0.551489 4.96136 0.2158 4.84094 -1.82936e-07 4.67235L0.455578 3.75715C0.695356 3.90165 0.959111 4.04616 1.27082 4.11841C1.58253 4.21475 1.91822 4.26292 2.22993 4.26292C2.94927 4.26292 3.30893 4.07025 3.30893 3.6849C3.30893 3.51631 3.21302 3.3718 3.04518 3.29955C2.85336 3.2273 2.56562 3.15504 2.18198 3.10687C1.75038 3.03462 1.41469 2.96237 1.15093 2.89012C0.887178 2.81786 0.6474 2.64927 0.455578 2.4566C0.263756 2.23984 0.167845 1.95083 0.167845 1.58956C0.167845 1.10788 0.359667 0.72253 0.767289 0.433519C1.17491 0.144507 1.7264 7.34994e-07 2.39778 7.34994e-07C2.75745 7.34994e-07 3.09313 0.0481693 3.4528 0.120422C3.81247 0.192675 4.1002 0.313097 4.316 0.433519L3.86042 1.34872C3.42882 1.08379 2.94927 0.963373 2.39778 0.963373C2.03811 0.963373 1.77436 1.01154 1.60651 1.13196C1.41469 1.2283 1.34276 1.3728 1.34276 1.54139C1.34276 1.73407 1.43867 1.87857 1.63049 1.95083C1.82231 2.02308 2.13402 2.09533 2.54165 2.16759C2.94927 2.23984 3.28496 2.31209 3.54871 2.38434C3.81247 2.4566 4.02827 2.6011 4.22009 2.81786C4.41191 3.01054 4.50782 3.29955 4.50782 3.66081C4.50782 4.1425 4.29202 4.52785 3.8844 4.81686C3.47678 5.10587 2.90131 5.25038 2.18198 5.25038C1.75038 5.25038 1.34276 5.17812 0.935134 5.08179Z" transform="translate(7.86472 40.8951)" fill="#263238"/>
<path d="M5.73069 0L3.33291 5.53939C3.11711 6.09333 2.82938 6.47867 2.51767 6.71952C2.20596 6.93628 1.82231 7.0567 1.36673 7.0567C1.10298 7.0567 0.863201 7.00853 0.623423 6.93628C0.383645 6.86402 0.167844 6.7436 -1.82936e-07 6.5991L0.479556 5.70798C0.599445 5.8284 0.719334 5.90065 0.887178 5.97291C1.03105 6.04516 1.19889 6.06924 1.36673 6.06924C1.58253 6.06924 1.75038 6.02107 1.89424 5.90065C2.03811 5.78023 2.158 5.61164 2.27789 5.34671L2.3738 5.15404L0.119889 0H1.36673L2.97325 3.78123L4.57976 0H5.73069Z" transform="translate(14.5785 40.9433)" fill="#263238"/>
<path d="M1.31878 4.9132C0.911156 4.69644 0.575467 4.38334 0.359667 3.97391C0.119889 3.56448 3.65872e-07 3.13096 3.65872e-07 2.62519C3.65872e-07 2.11942 0.119889 1.66182 0.359667 1.27647C0.599445 0.89112 0.911156 0.578022 1.31878 0.337179C1.7264 0.120421 2.20596 7.34994e-07 2.70949 7.34994e-07C3.237 7.34994e-07 3.69258 0.120421 4.12418 0.337179C4.5318 0.553938 4.86749 0.867036 5.08329 1.27647C5.32307 1.6859 5.44296 2.11942 5.44296 2.62519C5.44296 3.13096 5.32307 3.58856 5.08329 3.97391C4.84351 4.38334 4.5318 4.69644 4.12418 4.9132C3.71656 5.12995 3.237 5.25038 2.70949 5.25038C2.20596 5.25038 1.75038 5.12995 1.31878 4.9132ZM3.81247 3.78123C4.1002 3.49222 4.24407 3.10687 4.24407 2.62519C4.24407 2.1435 4.1002 1.75815 3.81247 1.46914C3.52474 1.18013 3.16507 1.03563 2.73347 1.03563C2.30187 1.03563 1.9422 1.18013 1.65447 1.46914C1.36673 1.75815 1.22287 2.1435 1.22287 2.62519C1.22287 3.10687 1.36673 3.49222 1.65447 3.78123C1.9422 4.07025 2.30187 4.21475 2.73347 4.21475C3.16507 4.21475 3.52474 4.07025 3.81247 3.78123Z" transform="translate(20.2373 40.8951)" fill="#263238"/>
<path d="M4.98738 0V5.12996H3.86042V4.47968C3.6686 4.72052 3.42882 4.88911 3.14109 5.00953C2.85336 5.12996 2.54165 5.20221 2.20596 5.20221C1.53458 5.20221 0.983089 5.00953 0.599444 4.62418C0.215799 4.23884 -7.31744e-07 3.6849 -7.31744e-07 2.93828V0H1.19889V2.76969C1.19889 3.2273 1.2948 3.56448 1.5106 3.80532C1.7264 4.02208 2.01413 4.1425 2.39778 4.1425C2.82938 4.1425 3.16507 3.99799 3.40485 3.73307C3.6686 3.46814 3.78849 3.08279 3.78849 2.57702V0H4.98738Z" transform="translate(26.5434 40.9433)" fill="#263238"/>
<path d="M2.94927 7.34994e-07V1.13196C2.85336 1.10788 2.75744 1.10788 2.66153 1.10788C2.20596 1.10788 1.82231 1.25238 1.58253 1.51731C1.31878 1.78224 1.19889 2.19167 1.19889 2.69744V5.17812H1.46349e-06V0.0481686H1.12696V0.794783C1.46265 0.264929 2.08607 7.34994e-07 2.94927 7.34994e-07Z" transform="translate(32.8736 40.8951)" fill="#263238"/>
<path d="M5.395 -7.34994e-07V7.12895H4.24407V6.45459C4.05225 6.69543 3.81247 6.88811 3.52473 7.00853C3.237 7.12895 2.92529 7.20121 2.56562 7.20121C2.08607 7.20121 1.63049 7.08078 1.24684 6.86402C0.863199 6.64726 0.551491 6.33417 0.335691 5.94882C0.11989 5.53939 -7.31744e-07 5.08179 -7.31744e-07 4.57601C-7.31744e-07 4.04616 0.11989 3.58856 0.335691 3.20321C0.551491 2.81786 0.863199 2.50477 1.24684 2.28801C1.63049 2.07125 2.08607 1.95083 2.56562 1.95083C2.90131 1.95083 3.21302 1.999 3.50076 2.11942C3.78849 2.23984 4.02827 2.40843 4.22009 2.64927V0.024085H5.395V-7.34994e-07ZM3.47678 5.9729C3.71656 5.85248 3.8844 5.65981 4.02827 5.41897C4.17214 5.17812 4.22009 4.88911 4.22009 4.57601C4.22009 4.26292 4.14816 3.97391 4.02827 3.73306C3.8844 3.49222 3.71656 3.29955 3.47678 3.17913C3.237 3.0587 2.99722 2.98645 2.70949 2.98645C2.42176 2.98645 2.158 3.0587 1.9422 3.17913C1.70242 3.29955 1.53458 3.49222 1.39071 3.73306C1.24685 3.97391 1.19889 4.26292 1.19889 4.57601C1.19889 4.88911 1.27082 5.17812 1.39071 5.41897C1.53458 5.65981 1.70242 5.85248 1.9422 5.9729C2.18198 6.09333 2.42176 6.16558 2.70949 6.16558C2.99722 6.16558 3.237 6.09333 3.47678 5.9729Z" transform="translate(38.6522 38.9443)" fill="#263238"/>
<path d="M0.2158 1.2283C0.0719334 1.08379 1.46349e-06 0.915203 1.46349e-06 0.722529C1.46349e-06 0.50577 0.0719334 0.337179 0.2158 0.216757C0.359667 0.0722514 0.55149 0 0.76729 0C0.98309 0 1.17491 0.0722536 1.31878 0.192675C1.46265 0.313097 1.53458 0.481684 1.53458 0.698443C1.53458 0.915202 1.46265 1.08379 1.31878 1.2283C1.17491 1.37281 0.98309 1.44506 0.76729 1.44506C0.527512 1.44506 0.359667 1.37281 0.2158 1.2283ZM0.143866 2.28801H1.34276V7.41796H0.143866V2.28801Z" transform="translate(45.2221 38.6553)" fill="#263238"/>
<path d="M4.05225 0.529854C4.45987 0.891119 4.65169 1.44506 4.65169 2.16759V5.17812H3.52473V4.55193C3.38087 4.76869 3.16507 4.93728 2.90131 5.0577C2.63756 5.17812 2.30187 5.22629 1.91822 5.22629C1.53458 5.22629 1.19889 5.15404 0.911156 5.03362C0.623423 4.9132 0.407622 4.72052 0.239777 4.47968C0.0719326 4.23883 -7.31744e-07 3.97391 -7.31744e-07 3.6849C-7.31744e-07 3.2273 0.167845 2.86603 0.503534 2.57702C0.839223 2.28801 1.39071 2.16759 2.11005 2.16759H3.42882V2.09533C3.42882 1.73407 3.33291 1.46914 3.11711 1.27647C2.90131 1.08379 2.5896 0.987455 2.158 0.987455C1.87027 0.987455 1.58253 1.03562 1.31878 1.13196C1.03104 1.2283 0.815246 1.34872 0.623423 1.51731L0.143867 0.650276C0.407623 0.433517 0.743312 0.289012 1.10298 0.16859C1.48662 0.0481686 1.87027 7.34994e-07 2.30187 7.34994e-07C3.06916 7.34994e-07 3.64463 0.16859 4.05225 0.529854ZM2.94927 4.16658C3.18905 4.02208 3.35689 3.8294 3.4528 3.56448V2.96237H2.22993C1.53458 2.96237 1.19889 3.17913 1.19889 3.63673C1.19889 3.85349 1.2948 4.02208 1.46265 4.16658C1.63049 4.31109 1.87027 4.35926 2.18198 4.35926C2.44574 4.35926 2.73347 4.31109 2.94927 4.16658Z" transform="translate(47.524 40.8951)" fill="#263238"/>
<path d="M4.14816 2.28801C4.5318 2.50477 4.84351 2.81786 5.05932 3.20321C5.27512 3.58856 5.395 4.04616 5.395 4.57602C5.395 5.10587 5.27512 5.56347 5.05932 5.94882C4.84351 6.35825 4.5318 6.64727 4.14816 6.86403C3.76451 7.08078 3.30893 7.2012 2.8054 7.2012C2.44573 7.2012 2.13402 7.12895 1.84629 7.00853C1.55856 6.88811 1.31878 6.69543 1.12696 6.45459V7.12895H0V1.46999e-06H1.19889V2.62519C1.41469 2.40843 1.65447 2.23984 1.91822 2.11942C2.20596 1.99899 2.49369 1.95083 2.82938 1.95083C3.30894 1.97491 3.76451 2.07125 4.14816 2.28801ZM3.76451 5.75615C4.05225 5.46713 4.19611 5.08179 4.19611 4.6001C4.19611 4.11841 4.05225 3.73306 3.76451 3.44405C3.47678 3.15504 3.11711 3.01054 2.68551 3.01054C2.39778 3.01054 2.13402 3.08279 1.91822 3.20321C1.67845 3.32363 1.5106 3.51631 1.36673 3.75715C1.22287 3.99799 1.17491 4.287 1.17491 4.6001C1.17491 4.9132 1.24684 5.20221 1.36673 5.44305C1.5106 5.68389 1.67845 5.87657 1.91822 5.99699C2.158 6.11741 2.39778 6.18966 2.68551 6.18966C3.11711 6.18966 3.47678 6.04516 3.76451 5.75615Z" transform="translate(53.4705 38.9202)" fill="#263238"/>
<path d="M5.17921 2.98645H1.17491C1.24685 3.3718 1.43867 3.66081 1.7264 3.87757C2.01414 4.09433 2.39778 4.21475 2.82938 4.21475C3.38087 4.21475 3.86043 4.02208 4.22009 3.66081L4.86749 4.40743C4.62771 4.67236 4.33998 4.88911 4.00429 5.03362C3.64462 5.17812 3.26098 5.25038 2.82938 5.25038C2.27789 5.25038 1.77436 5.12995 1.34276 4.9132C0.911155 4.69644 0.575468 4.38334 0.359668 3.97391C0.11989 3.56448 1.46349e-06 3.13096 1.46349e-06 2.62519C1.46349e-06 2.11942 0.119889 1.6859 0.335689 1.27647C0.551489 0.867036 0.887177 0.553938 1.27082 0.337179C1.67844 0.120421 2.13402 7.34994e-07 2.63756 7.34994e-07C3.14109 7.34994e-07 3.57269 0.120421 3.98032 0.337179C4.36396 0.553938 4.67567 0.867036 4.89147 1.27647C5.10727 1.6859 5.22716 2.1435 5.22716 2.67336C5.20318 2.72152 5.20318 2.84195 5.17921 2.98645ZM1.65447 1.30055C1.39071 1.51731 1.22287 1.83041 1.17491 2.21576H4.07623C4.02827 1.85449 3.86043 1.5414 3.59667 1.32464C3.33291 1.08379 3.0212 0.987455 2.61358 0.987455C2.25391 0.939286 1.91822 1.05971 1.65447 1.30055Z" transform="translate(59.369 40.8951)" fill="#263238"/>
<path d="M3.74053 5.94882C3.59667 6.06924 3.42882 6.14149 3.237 6.21375C3.04518 6.26192 2.82938 6.31009 2.5896 6.31009C2.03811 6.31009 1.60651 6.16558 1.2948 5.87657C0.983092 5.58756 0.83922 5.15404 0.83922 4.6001V2.1435H-2.92698e-06V1.18013H0.83922V-1.46999e-06H2.03811V1.18013H3.40485V2.1435H2.03811V4.57601C2.03811 4.81686 2.08607 5.00953 2.22994 5.15404C2.34982 5.27446 2.51767 5.34671 2.75744 5.34671C3.0212 5.34671 3.237 5.27446 3.42883 5.12995L3.74053 5.94882Z" transform="translate(64.812 39.8354)" fill="#263238"/>
<path d="M5.17921 2.98645H1.17491C1.24685 3.3718 1.43866 3.66081 1.7264 3.87757C2.01413 4.09433 2.39778 4.21475 2.82938 4.21475C3.38087 4.21475 3.86043 4.02208 4.22009 3.66081L4.86749 4.40743C4.62771 4.67236 4.33998 4.88911 4.00429 5.03362C3.64462 5.17812 3.26098 5.25038 2.82938 5.25038C2.27789 5.25038 1.77436 5.12995 1.34276 4.9132C0.911159 4.69644 0.575468 4.38334 0.359668 3.97391C0.11989 3.56448 1.46349e-06 3.13096 1.46349e-06 2.62519C1.46349e-06 2.11942 0.119889 1.6859 0.335689 1.27647C0.551489 0.867036 0.887177 0.553938 1.27082 0.337179C1.67844 0.120421 2.13402 7.34994e-07 2.63756 7.34994e-07C3.14109 7.34994e-07 3.57269 0.120421 3.98032 0.337179C4.36396 0.553938 4.67567 0.867036 4.89147 1.27647C5.10727 1.6859 5.22716 2.1435 5.22716 2.67336C5.20318 2.72152 5.20318 2.84195 5.17921 2.98645ZM1.65447 1.30055C1.39071 1.51731 1.22287 1.83041 1.17491 2.21576H4.07623C4.02827 1.85449 3.86043 1.5414 3.59667 1.32464C3.33291 1.08379 3.0212 0.987455 2.61358 0.987455C2.22993 0.939286 1.91822 1.05971 1.65447 1.30055Z" transform="translate(68.7204 40.8951)" fill="#263238"/>
<path d="M0.935135 5.08179C0.551491 4.96136 0.215803 4.84094 2.92698e-06 4.67235L0.455579 3.75715C0.695357 3.90165 0.959112 4.04616 1.27082 4.11841C1.58253 4.21475 1.91822 4.26292 2.22993 4.26292C2.94927 4.26292 3.30893 4.07025 3.30893 3.6849C3.30893 3.51631 3.21302 3.3718 3.04518 3.29955C2.85336 3.2273 2.56562 3.15504 2.18198 3.10687C1.75038 3.03462 1.41469 2.96237 1.15093 2.89012C0.887178 2.81786 0.647402 2.64927 0.455579 2.4566C0.263757 2.23984 0.167843 1.95083 0.167843 1.58956C0.167843 1.10788 0.359665 0.72253 0.767288 0.433519C1.17491 0.144507 1.7264 7.34994e-07 2.39778 7.34994e-07C2.75745 7.34994e-07 3.09314 0.0481693 3.4528 0.120422C3.81247 0.192675 4.1002 0.313097 4.316 0.433519L3.86042 1.34872C3.42882 1.08379 2.94927 0.963373 2.39778 0.963373C2.03812 0.963373 1.77435 1.01154 1.60651 1.13196C1.41469 1.2283 1.34275 1.3728 1.34275 1.54139C1.34275 1.73407 1.43867 1.87857 1.63049 1.95083C1.82231 2.02308 2.13402 2.09533 2.54164 2.16759C2.94927 2.23984 3.28496 2.31209 3.54871 2.38434C3.81247 2.4566 4.02827 2.6011 4.22009 2.81786C4.41191 3.01054 4.50782 3.29955 4.50782 3.66081C4.50782 4.1425 4.29202 4.52785 3.8844 4.81686C3.47678 5.10587 2.90131 5.25038 2.18198 5.25038C1.7264 5.25038 1.31878 5.17812 0.935135 5.08179Z" transform="translate(74.2592 40.8951)" fill="#263238"/>
<path d="M1.46349e-06 -7.34994e-07H1.19889V7.12895H1.46349e-06V-7.34994e-07Z" transform="translate(81.9081 38.9443)" fill="#263238"/>
<path d="M0.215799 1.2283C0.0719319 1.08379 0 0.915203 0 0.722529C0 0.50577 0.0719319 0.337179 0.215799 0.216757C0.359665 0.0722514 0.551492 0 0.767292 0C0.983092 0 1.17491 0.0722536 1.31878 0.192675C1.46265 0.313097 1.53458 0.481684 1.53458 0.698443C1.53458 0.915202 1.46265 1.08379 1.31878 1.2283C1.17491 1.37281 0.983092 1.44506 0.767292 1.44506C0.551492 1.44506 0.359665 1.37281 0.215799 1.2283ZM0.167847 2.28801H1.36674V7.41796H0.167847V2.28801Z" transform="translate(84.2819 38.6553)" fill="#263238"/>
<path d="M1.99016 1.80632V2.11942H3.40485V3.08279H2.03811V7.2012H0.839221V3.08279H-1.46349e-06V2.11942H0.839221V1.78224C0.839221 1.2283 1.00707 0.79478 1.31878 0.481684C1.63049 0.168589 2.08607 -1.46999e-06 2.66153 -1.46999e-06C3.11711 -1.46999e-06 3.47678 0.0963387 3.74054 0.289013L3.40485 1.18013C3.18905 1.03563 2.97324 0.96337 2.73347 0.96337C2.22993 0.987455 1.99016 1.25238 1.99016 1.80632Z" transform="translate(86.2961 38.872)" fill="#263238"/>
<path d="M5.1792 2.98645H1.17491C1.24684 3.3718 1.43867 3.66081 1.7264 3.87757C2.01414 4.09433 2.39778 4.21475 2.82938 4.21475C3.38087 4.21475 3.86042 4.02208 4.22009 3.66081L4.86749 4.40743C4.62772 4.67236 4.33998 4.88911 4.00429 5.03362C3.64463 5.17812 3.26098 5.25038 2.82938 5.25038C2.27789 5.25038 1.77436 5.12995 1.34276 4.9132C0.911156 4.69644 0.575466 4.38334 0.359665 3.97391C0.119887 3.56448 -1.46349e-06 3.13096 -1.46349e-06 2.62519C-1.46349e-06 2.11942 0.119886 1.6859 0.335686 1.27647C0.551486 0.867036 0.887181 0.553938 1.27083 0.337179C1.67845 0.120421 2.13402 7.34994e-07 2.63756 7.34994e-07C3.14109 7.34994e-07 3.57269 0.120421 3.98031 0.337179C4.36396 0.553938 4.67567 0.867036 4.89147 1.27647C5.10727 1.6859 5.22716 2.1435 5.22716 2.67336C5.20318 2.72152 5.20318 2.84195 5.1792 2.98645ZM1.65446 1.30055C1.39071 1.51731 1.22286 1.83041 1.17491 2.21576H4.07622C4.02827 1.85449 3.86042 1.5414 3.59667 1.32464C3.33291 1.08379 3.0212 0.987455 2.61358 0.987455C2.22993 0.939286 1.91822 1.05971 1.65446 1.30055Z" transform="translate(89.7729 40.8951)" fill="#263238"/>
</svg>
